<mxfile host="app.diagrams.net" modified="2022-04-07T21:05:11.186Z" agent="5.0 (Windows NT 10.0; Win64; x64) AppleWebKit/537.36 (KHTML, like Gecko) Chrome/100.0.4896.75 Safari/537.36" etag="TD3wpETnF_ugEpp6A9nV" version="17.4.1" type="github">
  <diagram id="h87udIRX1UEoffj4J0M0" name="Page-1">
    <mxGraphModel dx="1568" dy="752" grid="1" gridSize="10" guides="1" tooltips="1" connect="1" arrows="1" fold="1" page="1" pageScale="1" pageWidth="827" pageHeight="1169" math="0" shadow="0">
      <root>
        <mxCell id="0" />
        <mxCell id="1" parent="0" />
        <mxCell id="5vG_H_VH1CffKF7a3QQ1-1" value="Pelicula" style="swimlane;fontStyle=1;align=center;verticalAlign=top;childLayout=stackLayout;horizontal=1;startSize=26;horizontalStack=0;resizeParent=1;resizeParentMax=0;resizeLast=0;collapsible=1;marginBottom=0;" vertex="1" parent="1">
          <mxGeometry x="250" y="80" width="246" height="114" as="geometry" />
        </mxCell>
        <mxCell id="5vG_H_VH1CffKF7a3QQ1-2" value="- titulo:String&#xa;- anioEstreno: integer&#xa;- puntaje: double&#xa;" style="text;strokeColor=none;fillColor=none;align=left;verticalAlign=top;spacingLeft=4;spacingRight=4;overflow=hidden;rotatable=0;points=[[0,0.5],[1,0.5]];portConstraint=eastwest;" vertex="1" parent="5vG_H_VH1CffKF7a3QQ1-1">
          <mxGeometry y="26" width="246" height="54" as="geometry" />
        </mxCell>
        <mxCell id="5vG_H_VH1CffKF7a3QQ1-3" value="" style="line;strokeWidth=1;fillColor=none;align=left;verticalAlign=middle;spacingTop=-1;spacingLeft=3;spacingRight=3;rotatable=0;labelPosition=right;points=[];portConstraint=eastwest;" vertex="1" parent="5vG_H_VH1CffKF7a3QQ1-1">
          <mxGeometry y="80" width="246" height="8" as="geometry" />
        </mxCell>
        <mxCell id="5vG_H_VH1CffKF7a3QQ1-4" value="+ method(type): type" style="text;strokeColor=none;fillColor=none;align=left;verticalAlign=top;spacingLeft=4;spacingRight=4;overflow=hidden;rotatable=0;points=[[0,0.5],[1,0.5]];portConstraint=eastwest;" vertex="1" parent="5vG_H_VH1CffKF7a3QQ1-1">
          <mxGeometry y="88" width="246" height="26" as="geometry" />
        </mxCell>
        <mxCell id="5vG_H_VH1CffKF7a3QQ1-41" value="" style="curved=1;endArrow=classic;html=1;rounded=0;entryX=0.907;entryY=1.231;entryDx=0;entryDy=0;entryPerimeter=0;exitX=0.724;exitY=1.077;exitDx=0;exitDy=0;exitPerimeter=0;" edge="1" parent="5vG_H_VH1CffKF7a3QQ1-1" source="5vG_H_VH1CffKF7a3QQ1-4" target="5vG_H_VH1CffKF7a3QQ1-4">
          <mxGeometry width="50" height="50" relative="1" as="geometry">
            <mxPoint x="-10" y="220" as="sourcePoint" />
            <mxPoint x="40" y="170" as="targetPoint" />
            <Array as="points">
              <mxPoint x="260" y="140" />
              <mxPoint x="270" y="120" />
            </Array>
          </mxGeometry>
        </mxCell>
        <mxCell id="5vG_H_VH1CffKF7a3QQ1-5" value="Decodificador" style="swimlane;fontStyle=1;align=center;verticalAlign=top;childLayout=stackLayout;horizontal=1;startSize=26;horizontalStack=0;resizeParent=1;resizeParentMax=0;resizeLast=0;collapsible=1;marginBottom=0;" vertex="1" parent="1">
          <mxGeometry x="240" y="330" width="246" height="86" as="geometry" />
        </mxCell>
        <mxCell id="5vG_H_VH1CffKF7a3QQ1-7" value="" style="line;strokeWidth=1;fillColor=none;align=left;verticalAlign=middle;spacingTop=-1;spacingLeft=3;spacingRight=3;rotatable=0;labelPosition=right;points=[];portConstraint=eastwest;" vertex="1" parent="5vG_H_VH1CffKF7a3QQ1-5">
          <mxGeometry y="26" width="246" height="8" as="geometry" />
        </mxCell>
        <mxCell id="5vG_H_VH1CffKF7a3QQ1-8" value="+ recomendar(): &lt;Pelicula&gt;&#xa;+ setCriterio(metodo: Sugeridor)" style="text;strokeColor=none;fillColor=none;align=left;verticalAlign=top;spacingLeft=4;spacingRight=4;overflow=hidden;rotatable=0;points=[[0,0.5],[1,0.5]];portConstraint=eastwest;" vertex="1" parent="5vG_H_VH1CffKF7a3QQ1-5">
          <mxGeometry y="34" width="246" height="52" as="geometry" />
        </mxCell>
        <mxCell id="5vG_H_VH1CffKF7a3QQ1-9" value="" style="endArrow=classic;html=1;rounded=0;exitX=0.472;exitY=0.018;exitDx=0;exitDy=0;exitPerimeter=0;entryX=0.459;entryY=1.077;entryDx=0;entryDy=0;entryPerimeter=0;" edge="1" parent="1" source="5vG_H_VH1CffKF7a3QQ1-5" target="5vG_H_VH1CffKF7a3QQ1-4">
          <mxGeometry width="50" height="50" relative="1" as="geometry">
            <mxPoint x="340" y="420" as="sourcePoint" />
            <mxPoint x="360" y="230" as="targetPoint" />
          </mxGeometry>
        </mxCell>
        <mxCell id="5vG_H_VH1CffKF7a3QQ1-11" value="reproducidas&lt;br&gt;0..1" style="text;html=1;align=center;verticalAlign=middle;resizable=0;points=[];autosize=1;strokeColor=none;fillColor=none;" vertex="1" parent="1">
          <mxGeometry x="270" y="290" width="80" height="30" as="geometry" />
        </mxCell>
        <mxCell id="5vG_H_VH1CffKF7a3QQ1-15" value="similares&lt;br&gt;0..*" style="text;html=1;align=center;verticalAlign=middle;resizable=0;points=[];autosize=1;strokeColor=none;fillColor=none;" vertex="1" parent="1">
          <mxGeometry x="470" y="220" width="60" height="30" as="geometry" />
        </mxCell>
        <mxCell id="5vG_H_VH1CffKF7a3QQ1-16" value="&lt;&lt;interface&gt;&gt;&#xa;Sugeridor" style="swimlane;fontStyle=1;align=center;verticalAlign=top;childLayout=stackLayout;horizontal=1;startSize=48;horizontalStack=0;resizeParent=1;resizeParentMax=0;resizeLast=0;collapsible=1;marginBottom=0;" vertex="1" parent="1">
          <mxGeometry x="77" y="590" width="460" height="82" as="geometry" />
        </mxCell>
        <mxCell id="5vG_H_VH1CffKF7a3QQ1-18" value="" style="line;strokeWidth=1;fillColor=none;align=left;verticalAlign=middle;spacingTop=-1;spacingLeft=3;spacingRight=3;rotatable=0;labelPosition=right;points=[];portConstraint=eastwest;" vertex="1" parent="5vG_H_VH1CffKF7a3QQ1-16">
          <mxGeometry y="48" width="460" height="8" as="geometry" />
        </mxCell>
        <mxCell id="5vG_H_VH1CffKF7a3QQ1-19" value="+ recomendar(&lt;Pelicula&gt; vistas, &lt;Pelicula&gt; disponibles): &lt;Pelicula&gt;" style="text;strokeColor=none;fillColor=none;align=left;verticalAlign=top;spacingLeft=4;spacingRight=4;overflow=hidden;rotatable=0;points=[[0,0.5],[1,0.5]];portConstraint=eastwest;" vertex="1" parent="5vG_H_VH1CffKF7a3QQ1-16">
          <mxGeometry y="56" width="460" height="26" as="geometry" />
        </mxCell>
        <mxCell id="5vG_H_VH1CffKF7a3QQ1-20" value="" style="endArrow=classic;html=1;rounded=0;exitX=0.419;exitY=1;exitDx=0;exitDy=0;exitPerimeter=0;" edge="1" parent="1" source="5vG_H_VH1CffKF7a3QQ1-8" target="5vG_H_VH1CffKF7a3QQ1-16">
          <mxGeometry width="50" height="50" relative="1" as="geometry">
            <mxPoint x="210" y="400" as="sourcePoint" />
            <mxPoint x="260" y="350" as="targetPoint" />
          </mxGeometry>
        </mxCell>
        <mxCell id="5vG_H_VH1CffKF7a3QQ1-21" value="recomendador" style="text;html=1;align=center;verticalAlign=middle;resizable=0;points=[];autosize=1;strokeColor=none;fillColor=none;" vertex="1" parent="1">
          <mxGeometry x="328" y="500" width="90" height="20" as="geometry" />
        </mxCell>
        <mxCell id="5vG_H_VH1CffKF7a3QQ1-22" value="Novedad" style="swimlane;fontStyle=1;align=center;verticalAlign=top;childLayout=stackLayout;horizontal=1;startSize=26;horizontalStack=0;resizeParent=1;resizeParentMax=0;resizeLast=0;collapsible=1;marginBottom=0;" vertex="1" parent="1">
          <mxGeometry x="-110" y="750" width="160" height="86" as="geometry" />
        </mxCell>
        <mxCell id="5vG_H_VH1CffKF7a3QQ1-23" value="+ field: type" style="text;strokeColor=none;fillColor=none;align=left;verticalAlign=top;spacingLeft=4;spacingRight=4;overflow=hidden;rotatable=0;points=[[0,0.5],[1,0.5]];portConstraint=eastwest;" vertex="1" parent="5vG_H_VH1CffKF7a3QQ1-22">
          <mxGeometry y="26" width="160" height="26" as="geometry" />
        </mxCell>
        <mxCell id="5vG_H_VH1CffKF7a3QQ1-24" value="" style="line;strokeWidth=1;fillColor=none;align=left;verticalAlign=middle;spacingTop=-1;spacingLeft=3;spacingRight=3;rotatable=0;labelPosition=right;points=[];portConstraint=eastwest;" vertex="1" parent="5vG_H_VH1CffKF7a3QQ1-22">
          <mxGeometry y="52" width="160" height="8" as="geometry" />
        </mxCell>
        <mxCell id="5vG_H_VH1CffKF7a3QQ1-25" value="+ recomendar()" style="text;strokeColor=none;fillColor=none;align=left;verticalAlign=top;spacingLeft=4;spacingRight=4;overflow=hidden;rotatable=0;points=[[0,0.5],[1,0.5]];portConstraint=eastwest;" vertex="1" parent="5vG_H_VH1CffKF7a3QQ1-22">
          <mxGeometry y="60" width="160" height="26" as="geometry" />
        </mxCell>
        <mxCell id="5vG_H_VH1CffKF7a3QQ1-26" value="Similaridad" style="swimlane;fontStyle=1;align=center;verticalAlign=top;childLayout=stackLayout;horizontal=1;startSize=26;horizontalStack=0;resizeParent=1;resizeParentMax=0;resizeLast=0;collapsible=1;marginBottom=0;" vertex="1" parent="1">
          <mxGeometry x="120" y="750" width="160" height="86" as="geometry" />
        </mxCell>
        <mxCell id="5vG_H_VH1CffKF7a3QQ1-27" value="+ field: type" style="text;strokeColor=none;fillColor=none;align=left;verticalAlign=top;spacingLeft=4;spacingRight=4;overflow=hidden;rotatable=0;points=[[0,0.5],[1,0.5]];portConstraint=eastwest;" vertex="1" parent="5vG_H_VH1CffKF7a3QQ1-26">
          <mxGeometry y="26" width="160" height="26" as="geometry" />
        </mxCell>
        <mxCell id="5vG_H_VH1CffKF7a3QQ1-28" value="" style="line;strokeWidth=1;fillColor=none;align=left;verticalAlign=middle;spacingTop=-1;spacingLeft=3;spacingRight=3;rotatable=0;labelPosition=right;points=[];portConstraint=eastwest;" vertex="1" parent="5vG_H_VH1CffKF7a3QQ1-26">
          <mxGeometry y="52" width="160" height="8" as="geometry" />
        </mxCell>
        <mxCell id="5vG_H_VH1CffKF7a3QQ1-29" value="+ recomendar()" style="text;strokeColor=none;fillColor=none;align=left;verticalAlign=top;spacingLeft=4;spacingRight=4;overflow=hidden;rotatable=0;points=[[0,0.5],[1,0.5]];portConstraint=eastwest;" vertex="1" parent="5vG_H_VH1CffKF7a3QQ1-26">
          <mxGeometry y="60" width="160" height="26" as="geometry" />
        </mxCell>
        <mxCell id="5vG_H_VH1CffKF7a3QQ1-30" value="Puntaje" style="swimlane;fontStyle=1;align=center;verticalAlign=top;childLayout=stackLayout;horizontal=1;startSize=26;horizontalStack=0;resizeParent=1;resizeParentMax=0;resizeLast=0;collapsible=1;marginBottom=0;" vertex="1" parent="1">
          <mxGeometry x="350" y="750" width="160" height="86" as="geometry" />
        </mxCell>
        <mxCell id="5vG_H_VH1CffKF7a3QQ1-31" value="+ field: type" style="text;strokeColor=none;fillColor=none;align=left;verticalAlign=top;spacingLeft=4;spacingRight=4;overflow=hidden;rotatable=0;points=[[0,0.5],[1,0.5]];portConstraint=eastwest;" vertex="1" parent="5vG_H_VH1CffKF7a3QQ1-30">
          <mxGeometry y="26" width="160" height="26" as="geometry" />
        </mxCell>
        <mxCell id="5vG_H_VH1CffKF7a3QQ1-32" value="" style="line;strokeWidth=1;fillColor=none;align=left;verticalAlign=middle;spacingTop=-1;spacingLeft=3;spacingRight=3;rotatable=0;labelPosition=right;points=[];portConstraint=eastwest;" vertex="1" parent="5vG_H_VH1CffKF7a3QQ1-30">
          <mxGeometry y="52" width="160" height="8" as="geometry" />
        </mxCell>
        <mxCell id="5vG_H_VH1CffKF7a3QQ1-33" value="+ recomendar()" style="text;strokeColor=none;fillColor=none;align=left;verticalAlign=top;spacingLeft=4;spacingRight=4;overflow=hidden;rotatable=0;points=[[0,0.5],[1,0.5]];portConstraint=eastwest;" vertex="1" parent="5vG_H_VH1CffKF7a3QQ1-30">
          <mxGeometry y="60" width="160" height="26" as="geometry" />
        </mxCell>
        <mxCell id="5vG_H_VH1CffKF7a3QQ1-36" value="" style="endArrow=block;dashed=1;endFill=0;endSize=12;html=1;rounded=0;entryX=0.365;entryY=1;entryDx=0;entryDy=0;entryPerimeter=0;" edge="1" parent="1" target="5vG_H_VH1CffKF7a3QQ1-19">
          <mxGeometry width="160" relative="1" as="geometry">
            <mxPoint x="210" y="730" as="sourcePoint" />
            <mxPoint x="210" y="680" as="targetPoint" />
          </mxGeometry>
        </mxCell>
        <mxCell id="5vG_H_VH1CffKF7a3QQ1-37" value="" style="endArrow=none;dashed=1;html=1;rounded=0;exitX=0.5;exitY=0;exitDx=0;exitDy=0;" edge="1" parent="1" source="5vG_H_VH1CffKF7a3QQ1-22">
          <mxGeometry width="50" height="50" relative="1" as="geometry">
            <mxPoint x="210" y="500" as="sourcePoint" />
            <mxPoint x="210" y="730" as="targetPoint" />
          </mxGeometry>
        </mxCell>
        <mxCell id="5vG_H_VH1CffKF7a3QQ1-38" value="" style="endArrow=none;dashed=1;html=1;rounded=0;" edge="1" parent="1" source="5vG_H_VH1CffKF7a3QQ1-26">
          <mxGeometry width="50" height="50" relative="1" as="geometry">
            <mxPoint x="-20" y="760" as="sourcePoint" />
            <mxPoint x="210" y="730" as="targetPoint" />
          </mxGeometry>
        </mxCell>
        <mxCell id="5vG_H_VH1CffKF7a3QQ1-39" value="" style="endArrow=none;dashed=1;html=1;rounded=0;exitX=0.5;exitY=0;exitDx=0;exitDy=0;" edge="1" parent="1" source="5vG_H_VH1CffKF7a3QQ1-30">
          <mxGeometry width="50" height="50" relative="1" as="geometry">
            <mxPoint x="216.82539682539687" y="760" as="sourcePoint" />
            <mxPoint x="210" y="730" as="targetPoint" />
          </mxGeometry>
        </mxCell>
        <mxCell id="5vG_H_VH1CffKF7a3QQ1-10" value="peliculas disponibles&lt;br&gt;0..1" style="text;html=1;align=center;verticalAlign=middle;resizable=0;points=[];autosize=1;strokeColor=none;fillColor=none;" vertex="1" parent="1">
          <mxGeometry x="291" y="290" width="246" height="30" as="geometry" />
        </mxCell>
      </root>
    </mxGraphModel>
  </diagram>
</mxfile>
